<svg width="31" height="31" viewBox="0 0 31 31" fill="none" xmlns="http://www.w3.org/2000/svg">
<path d="M30.0346 6.33317C29.4571 5.34067 28.3946 4.6665 27.1637 4.6665H15.4971V6.33317H30.0346ZM0.49707 21.3332H30.4971V22.9998H0.49707V21.3332ZM15.4971 14.6665H30.4971V16.3332H15.4971V14.6665ZM15.4971 11.3332H30.4971V12.9998H15.4971V11.3332ZM0.49707 17.9998H30.4971V19.6665H0.49707V17.9998ZM3.8304 26.3332H27.1637C28.3946 26.3332 29.4571 25.659 30.0346 24.6665H0.95957C1.53707 25.659 2.59957 26.3332 3.8304 26.3332ZM15.4971 7.99984H30.4971V9.6665H15.4971V7.99984Z" fill="#B22334"/>
<path d="M0.553737 23.566C0.567626 23.6438 0.584015 23.7207 0.602904 23.7968C0.625126 23.8802 0.650681 23.9624 0.67957 24.0435C0.753737 24.2593 0.843737 24.4677 0.95707 24.6627L0.95957 24.6668H30.0346L30.0362 24.6635C30.1492 24.4676 30.2419 24.2607 30.3129 24.046C30.367 23.8894 30.4093 23.7289 30.4396 23.566C30.4737 23.3827 30.4971 23.1943 30.4971 23.0002H0.49707C0.49707 23.1943 0.520404 23.3818 0.553737 23.566ZM0.49707 19.6668H30.4971V21.3335H0.49707V19.6668ZM0.49707 16.3335V18.0002H30.4971V16.3335H15.4971H0.49707ZM15.4971 13.0002H30.4971V14.6668H15.4971V13.0002ZM15.4971 9.66683H30.4971V11.3335H15.4971V9.66683ZM0.603737 7.2035C0.62457 7.1185 0.653737 7.03766 0.680404 6.956C0.65165 7.03747 0.626075 7.12003 0.603737 7.2035ZM15.4971 8.00016H30.4971C30.4971 7.806 30.4737 7.61766 30.4396 7.4335C30.4104 7.27025 30.3678 7.1097 30.3121 6.9535C30.2409 6.73792 30.1479 6.53017 30.0346 6.3335H15.4971V8.00016Z" fill="#EEEEEE"/>
<path d="M15.4971 4.6665H3.8304C2.94635 4.6665 2.0985 5.01769 1.47338 5.64281C0.84826 6.26794 0.49707 7.11578 0.49707 7.99984L0.49707 16.3332H15.4971V4.6665Z" fill="#3C3B6E"/>
<path d="M2.16455 6.9385L2.67955 7.31266L2.48288 7.91683L2.99705 7.5435L3.51205 7.91683L3.31538 7.31266L3.83038 6.9385H3.19372L2.99705 6.3335L2.80122 6.9385H2.16455ZM3.83122 8.60516L4.34622 8.97933L4.14955 9.5835L4.66372 9.21016L5.17872 9.5835L4.98205 8.97933L5.49705 8.60516H4.86038L4.66372 8.00016L4.46788 8.60516H3.83122ZM7.16455 8.60516L7.67955 8.97933L7.48288 9.5835L7.99705 9.21016L8.51205 9.5835L8.31538 8.97933L8.83038 8.60516H8.19372L7.99705 8.00016L7.80122 8.60516H7.16455ZM10.4979 8.60516L11.0129 8.97933L10.8162 9.5835L11.3304 9.21016L11.8454 9.5835L11.6487 8.97933L12.1637 8.60516H11.5271L11.3304 8.00016L11.1346 8.60516H10.4979ZM3.83122 11.9385L4.34622 12.3127L4.14955 12.9168L4.66372 12.5435L5.17872 12.9168L4.98205 12.3127L5.49705 11.9385H4.86038L4.66372 11.3335L4.46788 11.9385H3.83122ZM7.16455 11.9385L7.67955 12.3127L7.48288 12.9168L7.99705 12.5435L8.51205 12.9168L8.31538 12.3127L8.83038 11.9385H8.19372L7.99705 11.3335L7.80122 11.9385H7.16455ZM10.4979 11.9385L11.0129 12.3127L10.8162 12.9168L11.3304 12.5435L11.8454 12.9168L11.6487 12.3127L12.1637 11.9385H11.5271L11.3304 11.3335L11.1346 11.9385H10.4979ZM5.49788 6.9385L6.01288 7.31266L5.81622 7.91683L6.33038 7.5435L6.84538 7.91683L6.64872 7.31266L7.16372 6.9385H6.52705L6.33038 6.3335L6.13455 6.9385H5.49788ZM8.83122 6.9385L9.34622 7.31266L9.14955 7.91683L9.66372 7.5435L10.1787 7.91683L9.98205 7.31266L10.4971 6.9385H9.86038L9.66372 6.3335L9.46788 6.9385H8.83122ZM12.1646 6.9385L12.6796 7.31266L12.4829 7.91683L12.9971 7.5435L13.5121 7.91683L13.3154 7.31266L13.8304 6.9385H13.1937L12.9971 6.3335L12.8012 6.9385H12.1646ZM2.16455 10.2718L2.67955 10.646L2.48288 11.2502L2.99705 10.8768L3.51205 11.2502L3.31538 10.646L3.83038 10.2718H3.19372L2.99705 9.66683L2.80122 10.2718H2.16455ZM5.81622 11.2502L6.33038 10.8768L6.84538 11.2502L6.64872 10.646L7.16372 10.2718H6.52705L6.33038 9.66683L6.13455 10.2718H5.49788L6.01288 10.646L5.81622 11.2502ZM8.83122 10.2718L9.34622 10.646L9.14955 11.2502L9.66372 10.8768L10.1787 11.2502L9.98205 10.646L10.4971 10.2718H9.86038L9.66372 9.66683L9.46788 10.2718H8.83122ZM12.1646 10.2718L12.6796 10.646L12.4829 11.2502L12.9971 10.8768L13.5121 11.2502L13.3154 10.646L13.8304 10.2718H13.1937L12.9971 9.66683L12.8012 10.2718H12.1646ZM2.16455 13.6052L2.67955 13.9793L2.48288 14.5835L2.99705 14.2102L3.51205 14.5835L3.31538 13.9793L3.83038 13.6052H3.19372L2.99705 13.0002L2.80122 13.6052H2.16455ZM5.81622 14.5835L6.33038 14.2102L6.84538 14.5835L6.64872 13.9793L7.16372 13.6052H6.52705L6.33038 13.0002L6.13455 13.6052H5.49788L6.01288 13.9793L5.81622 14.5835ZM8.83122 13.6052L9.34622 13.9793L9.14955 14.5835L9.66372 14.2102L10.1787 14.5835L9.98205 13.9793L10.4971 13.6052H9.86038L9.66372 13.0002L9.46788 13.6052H8.83122ZM12.1646 13.6052L12.6796 13.9793L12.4829 14.5835L12.9971 14.2102L13.5121 14.5835L13.3154 13.9793L13.8304 13.6052H13.1937L12.9971 13.0002L12.8012 13.6052H12.1646Z" fill="white"/>
</svg>
